
<svg xmlns="http://www.w3.org/2000/svg"
     id="aea1e81a-65ec-490c-b3bf-4fb6f27ee1c3"
     width="512" 
     height="128" 
     viewBox="0 0 46 10">
<rect width="46" height="10" x="0" y="0" fill="transparent"/>
<rect width="1" height="1" x="0" y="0" fill="#DEC010" />
<rect width="1" height="1" x="1" y="0" fill="#DEC010" />
<rect width="1" height="1" x="2" y="0" fill="#DEC010" />
<rect width="1" height="1" x="3" y="0" fill="#DEC010" />
<rect width="1" height="1" x="4" y="0" fill="#DEC010" />
<rect width="1" height="1" x="5" y="0" fill="#DEC010" />
<rect width="1" height="1" x="6" y="0" fill="#DEC010" />
<rect width="1" height="1" x="7" y="0" fill="#DEC010" />
<rect width="1" height="1" x="8" y="0" fill="#DEC010" />
<rect width="1" height="1" x="9" y="0" fill="#DEC010" />
<rect width="1" height="1" x="10" y="0" fill="#DEC010" />
<rect width="1" height="1" x="11" y="0" fill="#DEC010" />
<rect width="1" height="1" x="12" y="0" fill="#DEC010" />
<rect width="1" height="1" x="13" y="0" fill="#DEC010" />
<rect width="1" height="1" x="14" y="0" fill="#DEC010" />
<rect width="1" height="1" x="15" y="0" fill="#DEC010" />
<rect width="1" height="1" x="16" y="0" fill="#DEC010" />
<rect width="1" height="1" x="17" y="0" fill="#DEC010" />
<rect width="1" height="1" x="18" y="0" fill="#DEC010" />
<rect width="1" height="1" x="19" y="0" fill="#DEC010" />
<rect width="1" height="1" x="20" y="0" fill="#DEC010" />
<rect width="1" height="1" x="21" y="0" fill="#DEC010" />
<rect width="1" height="1" x="22" y="0" fill="#DEC010" />
<rect width="1" height="1" x="23" y="0" fill="#DEC010" />
<rect width="1" height="1" x="24" y="0" fill="#DEC010" />
<rect width="1" height="1" x="25" y="0" fill="#DEC010" />
<rect width="1" height="1" x="26" y="0" fill="#DEC010" />
<rect width="1" height="1" x="27" y="0" fill="#DEC010" />
<rect width="1" height="1" x="28" y="0" fill="#DEC010" />
<rect width="1" height="1" x="29" y="0" fill="#DEC010" />
<rect width="1" height="1" x="30" y="0" fill="#DEC010" />
<rect width="1" height="1" x="31" y="0" fill="#DEC010" />
<rect width="1" height="1" x="32" y="0" fill="#DEC010" />
<rect width="1" height="1" x="33" y="0" fill="#DEC010" />
<rect width="1" height="1" x="34" y="0" fill="#DEC010" />
<rect width="1" height="1" x="35" y="0" fill="#DEC010" />
<rect width="1" height="1" x="36" y="0" fill="#DEC010" />
<rect width="1" height="1" x="37" y="0" fill="#DEC010" />
<rect width="1" height="1" x="38" y="0" fill="#DEC010" />
<rect width="1" height="1" x="39" y="0" fill="#DEC010" />
<rect width="1" height="1" x="40" y="0" fill="#DEC010" />
<rect width="1" height="1" x="41" y="0" fill="#DEC010" />
<rect width="1" height="1" x="42" y="0" fill="#DEC010" />
<rect width="1" height="1" x="43" y="0" fill="#DEC010" />
<rect width="1" height="1" x="44" y="0" fill="#DEC010" />
<rect width="1" height="1" x="45" y="0" fill="#DEC010" /><rect width="1" height="1" x="0" y="1" fill="#DEC010" />
<rect width="1" height="1" x="1" y="1" fill="white" />
<rect width="1" height="1" x="2" y="1" fill="white" />
<rect width="1" height="1" x="3" y="1" fill="white" />
<rect width="1" height="1" x="4" y="1" fill="white" />
<rect width="1" height="1" x="5" y="1" fill="white" />
<rect width="1" height="1" x="6" y="1" fill="white" />
<rect width="1" height="1" x="7" y="1" fill="white" />
<rect width="1" height="1" x="8" y="1" fill="white" />
<rect width="1" height="1" x="9" y="1" fill="#DEC010" />
<rect width="1" height="1" x="10" y="1" fill="white" />
<rect width="1" height="1" x="11" y="1" fill="white" />
<rect width="1" height="1" x="12" y="1" fill="#DEC010" />
<rect width="1" height="1" x="13" y="1" fill="#DEC010" />
<rect width="1" height="1" x="14" y="1" fill="#DEC010" />
<rect width="1" height="1" x="15" y="1" fill="#DEC010" />
<rect width="1" height="1" x="16" y="1" fill="white" />
<rect width="1" height="1" x="17" y="1" fill="white" />
<rect width="1" height="1" x="18" y="1" fill="#DEC010" />
<rect width="1" height="1" x="19" y="1" fill="white" />
<rect width="1" height="1" x="20" y="1" fill="white" />
<rect width="1" height="1" x="21" y="1" fill="white" />
<rect width="1" height="1" x="22" y="1" fill="white" />
<rect width="1" height="1" x="23" y="1" fill="white" />
<rect width="1" height="1" x="24" y="1" fill="white" />
<rect width="1" height="1" x="25" y="1" fill="white" />
<rect width="1" height="1" x="26" y="1" fill="white" />
<rect width="1" height="1" x="27" y="1" fill="#DEC010" />
<rect width="1" height="1" x="28" y="1" fill="white" />
<rect width="1" height="1" x="29" y="1" fill="white" />
<rect width="1" height="1" x="30" y="1" fill="white" />
<rect width="1" height="1" x="31" y="1" fill="white" />
<rect width="1" height="1" x="32" y="1" fill="white" />
<rect width="1" height="1" x="33" y="1" fill="white" />
<rect width="1" height="1" x="34" y="1" fill="white" />
<rect width="1" height="1" x="35" y="1" fill="white" />
<rect width="1" height="1" x="36" y="1" fill="#DEC010" />
<rect width="1" height="1" x="37" y="1" fill="white" />
<rect width="1" height="1" x="38" y="1" fill="white" />
<rect width="1" height="1" x="39" y="1" fill="white" />
<rect width="1" height="1" x="40" y="1" fill="white" />
<rect width="1" height="1" x="41" y="1" fill="white" />
<rect width="1" height="1" x="42" y="1" fill="white" />
<rect width="1" height="1" x="43" y="1" fill="white" />
<rect width="1" height="1" x="44" y="1" fill="white" />
<rect width="1" height="1" x="45" y="1" fill="#DEC010" /><rect width="1" height="1" x="0" y="2" fill="#DEC010" />
<rect width="1" height="1" x="1" y="2" fill="white" />
<rect width="1" height="1" x="2" y="2" fill="white" />
<rect width="1" height="1" x="3" y="2" fill="white" />
<rect width="1" height="1" x="4" y="2" fill="white" />
<rect width="1" height="1" x="5" y="2" fill="white" />
<rect width="1" height="1" x="6" y="2" fill="white" />
<rect width="1" height="1" x="7" y="2" fill="white" />
<rect width="1" height="1" x="8" y="2" fill="white" />
<rect width="1" height="1" x="9" y="2" fill="#DEC010" />
<rect width="1" height="1" x="10" y="2" fill="white" />
<rect width="1" height="1" x="11" y="2" fill="white" />
<rect width="1" height="1" x="12" y="2" fill="#DEC010" />
<rect width="1" height="1" x="13" y="2" fill="#DEC010" />
<rect width="1" height="1" x="14" y="2" fill="#DEC010" />
<rect width="1" height="1" x="15" y="2" fill="#DEC010" />
<rect width="1" height="1" x="16" y="2" fill="white" />
<rect width="1" height="1" x="17" y="2" fill="white" />
<rect width="1" height="1" x="18" y="2" fill="#DEC010" />
<rect width="1" height="1" x="19" y="2" fill="white" />
<rect width="1" height="1" x="20" y="2" fill="white" />
<rect width="1" height="1" x="21" y="2" fill="white" />
<rect width="1" height="1" x="22" y="2" fill="white" />
<rect width="1" height="1" x="23" y="2" fill="white" />
<rect width="1" height="1" x="24" y="2" fill="white" />
<rect width="1" height="1" x="25" y="2" fill="white" />
<rect width="1" height="1" x="26" y="2" fill="white" />
<rect width="1" height="1" x="27" y="2" fill="#DEC010" />
<rect width="1" height="1" x="28" y="2" fill="white" />
<rect width="1" height="1" x="29" y="2" fill="white" />
<rect width="1" height="1" x="30" y="2" fill="white" />
<rect width="1" height="1" x="31" y="2" fill="white" />
<rect width="1" height="1" x="32" y="2" fill="white" />
<rect width="1" height="1" x="33" y="2" fill="white" />
<rect width="1" height="1" x="34" y="2" fill="white" />
<rect width="1" height="1" x="35" y="2" fill="white" />
<rect width="1" height="1" x="36" y="2" fill="#DEC010" />
<rect width="1" height="1" x="37" y="2" fill="white" />
<rect width="1" height="1" x="38" y="2" fill="white" />
<rect width="1" height="1" x="39" y="2" fill="white" />
<rect width="1" height="1" x="40" y="2" fill="white" />
<rect width="1" height="1" x="41" y="2" fill="white" />
<rect width="1" height="1" x="42" y="2" fill="white" />
<rect width="1" height="1" x="43" y="2" fill="white" />
<rect width="1" height="1" x="44" y="2" fill="white" />
<rect width="1" height="1" x="45" y="2" fill="#DEC010" /><rect width="1" height="1" x="0" y="3" fill="#DEC010" />
<rect width="1" height="1" x="1" y="3" fill="white" />
<rect width="1" height="1" x="2" y="3" fill="white" />
<rect width="1" height="1" x="3" y="3" fill="#DEC010" />
<rect width="1" height="1" x="4" y="3" fill="#DEC010" />
<rect width="1" height="1" x="5" y="3" fill="#DEC010" />
<rect width="1" height="1" x="6" y="3" fill="#DEC010" />
<rect width="1" height="1" x="7" y="3" fill="#DEC010" />
<rect width="1" height="1" x="8" y="3" fill="#DEC010" />
<rect width="1" height="1" x="9" y="3" fill="#DEC010" />
<rect width="1" height="1" x="10" y="3" fill="white" />
<rect width="1" height="1" x="11" y="3" fill="white" />
<rect width="1" height="1" x="12" y="3" fill="#DEC010" />
<rect width="1" height="1" x="13" y="3" fill="#DEC010" />
<rect width="1" height="1" x="14" y="3" fill="#DEC010" />
<rect width="1" height="1" x="15" y="3" fill="#DEC010" />
<rect width="1" height="1" x="16" y="3" fill="white" />
<rect width="1" height="1" x="17" y="3" fill="white" />
<rect width="1" height="1" x="18" y="3" fill="#DEC010" />
<rect width="1" height="1" x="19" y="3" fill="white" />
<rect width="1" height="1" x="20" y="3" fill="white" />
<rect width="1" height="1" x="21" y="3" fill="#DEC010" />
<rect width="1" height="1" x="22" y="3" fill="#DEC010" />
<rect width="1" height="1" x="23" y="3" fill="#DEC010" />
<rect width="1" height="1" x="24" y="3" fill="#DEC010" />
<rect width="1" height="1" x="25" y="3" fill="#DEC010" />
<rect width="1" height="1" x="26" y="3" fill="#DEC010" />
<rect width="1" height="1" x="27" y="3" fill="#DEC010" />
<rect width="1" height="1" x="28" y="3" fill="white" />
<rect width="1" height="1" x="29" y="3" fill="white" />
<rect width="1" height="1" x="30" y="3" fill="#DEC010" />
<rect width="1" height="1" x="31" y="3" fill="#DEC010" />
<rect width="1" height="1" x="32" y="3" fill="#DEC010" />
<rect width="1" height="1" x="33" y="3" fill="#DEC010" />
<rect width="1" height="1" x="34" y="3" fill="white" />
<rect width="1" height="1" x="35" y="3" fill="white" />
<rect width="1" height="1" x="36" y="3" fill="#DEC010" />
<rect width="1" height="1" x="37" y="3" fill="white" />
<rect width="1" height="1" x="38" y="3" fill="white" />
<rect width="1" height="1" x="39" y="3" fill="#DEC010" />
<rect width="1" height="1" x="40" y="3" fill="#DEC010" />
<rect width="1" height="1" x="41" y="3" fill="#DEC010" />
<rect width="1" height="1" x="42" y="3" fill="#DEC010" />
<rect width="1" height="1" x="43" y="3" fill="#DEC010" />
<rect width="1" height="1" x="44" y="3" fill="#DEC010" />
<rect width="1" height="1" x="45" y="3" fill="#DEC010" /><rect width="1" height="1" x="0" y="4" fill="#DEC010" />
<rect width="1" height="1" x="1" y="4" fill="white" />
<rect width="1" height="1" x="2" y="4" fill="white" />
<rect width="1" height="1" x="3" y="4" fill="white" />
<rect width="1" height="1" x="4" y="4" fill="white" />
<rect width="1" height="1" x="5" y="4" fill="white" />
<rect width="1" height="1" x="6" y="4" fill="white" />
<rect width="1" height="1" x="7" y="4" fill="white" />
<rect width="1" height="1" x="8" y="4" fill="white" />
<rect width="1" height="1" x="9" y="4" fill="#DEC010" />
<rect width="1" height="1" x="10" y="4" fill="white" />
<rect width="1" height="1" x="11" y="4" fill="white" />
<rect width="1" height="1" x="12" y="4" fill="#DEC010" />
<rect width="1" height="1" x="13" y="4" fill="#DEC010" />
<rect width="1" height="1" x="14" y="4" fill="#DEC010" />
<rect width="1" height="1" x="15" y="4" fill="#DEC010" />
<rect width="1" height="1" x="16" y="4" fill="white" />
<rect width="1" height="1" x="17" y="4" fill="white" />
<rect width="1" height="1" x="18" y="4" fill="#DEC010" />
<rect width="1" height="1" x="19" y="4" fill="white" />
<rect width="1" height="1" x="20" y="4" fill="white" />
<rect width="1" height="1" x="21" y="4" fill="#DEC010" />
<rect width="1" height="1" x="22" y="4" fill="#DEC010" />
<rect width="1" height="1" x="23" y="4" fill="white" />
<rect width="1" height="1" x="24" y="4" fill="white" />
<rect width="1" height="1" x="25" y="4" fill="white" />
<rect width="1" height="1" x="26" y="4" fill="white" />
<rect width="1" height="1" x="27" y="4" fill="#DEC010" />
<rect width="1" height="1" x="28" y="4" fill="white" />
<rect width="1" height="1" x="29" y="4" fill="white" />
<rect width="1" height="1" x="30" y="4" fill="#DEC010" />
<rect width="1" height="1" x="31" y="4" fill="#DEC010" />
<rect width="1" height="1" x="32" y="4" fill="#DEC010" />
<rect width="1" height="1" x="33" y="4" fill="#DEC010" />
<rect width="1" height="1" x="34" y="4" fill="white" />
<rect width="1" height="1" x="35" y="4" fill="white" />
<rect width="1" height="1" x="36" y="4" fill="#DEC010" />
<rect width="1" height="1" x="37" y="4" fill="white" />
<rect width="1" height="1" x="38" y="4" fill="white" />
<rect width="1" height="1" x="39" y="4" fill="white" />
<rect width="1" height="1" x="40" y="4" fill="white" />
<rect width="1" height="1" x="41" y="4" fill="white" />
<rect width="1" height="1" x="42" y="4" fill="white" />
<rect width="1" height="1" x="43" y="4" fill="white" />
<rect width="1" height="1" x="44" y="4" fill="white" />
<rect width="1" height="1" x="45" y="4" fill="#DEC010" /><rect width="1" height="1" x="0" y="5" fill="#DEC010" />
<rect width="1" height="1" x="1" y="5" fill="white" />
<rect width="1" height="1" x="2" y="5" fill="white" />
<rect width="1" height="1" x="3" y="5" fill="white" />
<rect width="1" height="1" x="4" y="5" fill="white" />
<rect width="1" height="1" x="5" y="5" fill="white" />
<rect width="1" height="1" x="6" y="5" fill="white" />
<rect width="1" height="1" x="7" y="5" fill="white" />
<rect width="1" height="1" x="8" y="5" fill="white" />
<rect width="1" height="1" x="9" y="5" fill="#DEC010" />
<rect width="1" height="1" x="10" y="5" fill="white" />
<rect width="1" height="1" x="11" y="5" fill="white" />
<rect width="1" height="1" x="12" y="5" fill="#DEC010" />
<rect width="1" height="1" x="13" y="5" fill="#DEC010" />
<rect width="1" height="1" x="14" y="5" fill="#DEC010" />
<rect width="1" height="1" x="15" y="5" fill="#DEC010" />
<rect width="1" height="1" x="16" y="5" fill="white" />
<rect width="1" height="1" x="17" y="5" fill="white" />
<rect width="1" height="1" x="18" y="5" fill="#DEC010" />
<rect width="1" height="1" x="19" y="5" fill="white" />
<rect width="1" height="1" x="20" y="5" fill="white" />
<rect width="1" height="1" x="21" y="5" fill="#DEC010" />
<rect width="1" height="1" x="22" y="5" fill="#DEC010" />
<rect width="1" height="1" x="23" y="5" fill="white" />
<rect width="1" height="1" x="24" y="5" fill="white" />
<rect width="1" height="1" x="25" y="5" fill="white" />
<rect width="1" height="1" x="26" y="5" fill="white" />
<rect width="1" height="1" x="27" y="5" fill="#DEC010" />
<rect width="1" height="1" x="28" y="5" fill="white" />
<rect width="1" height="1" x="29" y="5" fill="white" />
<rect width="1" height="1" x="30" y="5" fill="#DEC010" />
<rect width="1" height="1" x="31" y="5" fill="#DEC010" />
<rect width="1" height="1" x="32" y="5" fill="#DEC010" />
<rect width="1" height="1" x="33" y="5" fill="#DEC010" />
<rect width="1" height="1" x="34" y="5" fill="white" />
<rect width="1" height="1" x="35" y="5" fill="white" />
<rect width="1" height="1" x="36" y="5" fill="#DEC010" />
<rect width="1" height="1" x="37" y="5" fill="white" />
<rect width="1" height="1" x="38" y="5" fill="white" />
<rect width="1" height="1" x="39" y="5" fill="white" />
<rect width="1" height="1" x="40" y="5" fill="white" />
<rect width="1" height="1" x="41" y="5" fill="white" />
<rect width="1" height="1" x="42" y="5" fill="white" />
<rect width="1" height="1" x="43" y="5" fill="white" />
<rect width="1" height="1" x="44" y="5" fill="white" />
<rect width="1" height="1" x="45" y="5" fill="#DEC010" /><rect width="1" height="1" x="0" y="6" fill="#DEC010" />
<rect width="1" height="1" x="1" y="6" fill="#DEC010" />
<rect width="1" height="1" x="2" y="6" fill="#DEC010" />
<rect width="1" height="1" x="3" y="6" fill="#DEC010" />
<rect width="1" height="1" x="4" y="6" fill="#DEC010" />
<rect width="1" height="1" x="5" y="6" fill="#DEC010" />
<rect width="1" height="1" x="6" y="6" fill="#DEC010" />
<rect width="1" height="1" x="7" y="6" fill="white" />
<rect width="1" height="1" x="8" y="6" fill="white" />
<rect width="1" height="1" x="9" y="6" fill="#DEC010" />
<rect width="1" height="1" x="10" y="6" fill="white" />
<rect width="1" height="1" x="11" y="6" fill="white" />
<rect width="1" height="1" x="12" y="6" fill="#DEC010" />
<rect width="1" height="1" x="13" y="6" fill="#DEC010" />
<rect width="1" height="1" x="14" y="6" fill="#DEC010" />
<rect width="1" height="1" x="15" y="6" fill="#DEC010" />
<rect width="1" height="1" x="16" y="6" fill="white" />
<rect width="1" height="1" x="17" y="6" fill="white" />
<rect width="1" height="1" x="18" y="6" fill="#DEC010" />
<rect width="1" height="1" x="19" y="6" fill="white" />
<rect width="1" height="1" x="20" y="6" fill="white" />
<rect width="1" height="1" x="21" y="6" fill="#DEC010" />
<rect width="1" height="1" x="22" y="6" fill="#DEC010" />
<rect width="1" height="1" x="23" y="6" fill="#DEC010" />
<rect width="1" height="1" x="24" y="6" fill="#DEC010" />
<rect width="1" height="1" x="25" y="6" fill="white" />
<rect width="1" height="1" x="26" y="6" fill="white" />
<rect width="1" height="1" x="27" y="6" fill="#DEC010" />
<rect width="1" height="1" x="28" y="6" fill="white" />
<rect width="1" height="1" x="29" y="6" fill="white" />
<rect width="1" height="1" x="30" y="6" fill="#DEC010" />
<rect width="1" height="1" x="31" y="6" fill="#DEC010" />
<rect width="1" height="1" x="32" y="6" fill="#DEC010" />
<rect width="1" height="1" x="33" y="6" fill="#DEC010" />
<rect width="1" height="1" x="34" y="6" fill="white" />
<rect width="1" height="1" x="35" y="6" fill="white" />
<rect width="1" height="1" x="36" y="6" fill="#DEC010" />
<rect width="1" height="1" x="37" y="6" fill="#DEC010" />
<rect width="1" height="1" x="38" y="6" fill="#DEC010" />
<rect width="1" height="1" x="39" y="6" fill="#DEC010" />
<rect width="1" height="1" x="40" y="6" fill="#DEC010" />
<rect width="1" height="1" x="41" y="6" fill="#DEC010" />
<rect width="1" height="1" x="42" y="6" fill="#DEC010" />
<rect width="1" height="1" x="43" y="6" fill="white" />
<rect width="1" height="1" x="44" y="6" fill="white" />
<rect width="1" height="1" x="45" y="6" fill="#DEC010" /><rect width="1" height="1" x="0" y="7" fill="#DEC010" />
<rect width="1" height="1" x="1" y="7" fill="white" />
<rect width="1" height="1" x="2" y="7" fill="white" />
<rect width="1" height="1" x="3" y="7" fill="white" />
<rect width="1" height="1" x="4" y="7" fill="white" />
<rect width="1" height="1" x="5" y="7" fill="white" />
<rect width="1" height="1" x="6" y="7" fill="white" />
<rect width="1" height="1" x="7" y="7" fill="white" />
<rect width="1" height="1" x="8" y="7" fill="white" />
<rect width="1" height="1" x="9" y="7" fill="#DEC010" />
<rect width="1" height="1" x="10" y="7" fill="white" />
<rect width="1" height="1" x="11" y="7" fill="white" />
<rect width="1" height="1" x="12" y="7" fill="white" />
<rect width="1" height="1" x="13" y="7" fill="white" />
<rect width="1" height="1" x="14" y="7" fill="white" />
<rect width="1" height="1" x="15" y="7" fill="white" />
<rect width="1" height="1" x="16" y="7" fill="white" />
<rect width="1" height="1" x="17" y="7" fill="white" />
<rect width="1" height="1" x="18" y="7" fill="#DEC010" />
<rect width="1" height="1" x="19" y="7" fill="white" />
<rect width="1" height="1" x="20" y="7" fill="white" />
<rect width="1" height="1" x="21" y="7" fill="white" />
<rect width="1" height="1" x="22" y="7" fill="white" />
<rect width="1" height="1" x="23" y="7" fill="white" />
<rect width="1" height="1" x="24" y="7" fill="white" />
<rect width="1" height="1" x="25" y="7" fill="white" />
<rect width="1" height="1" x="26" y="7" fill="white" />
<rect width="1" height="1" x="27" y="7" fill="#DEC010" />
<rect width="1" height="1" x="28" y="7" fill="white" />
<rect width="1" height="1" x="29" y="7" fill="white" />
<rect width="1" height="1" x="30" y="7" fill="white" />
<rect width="1" height="1" x="31" y="7" fill="white" />
<rect width="1" height="1" x="32" y="7" fill="white" />
<rect width="1" height="1" x="33" y="7" fill="white" />
<rect width="1" height="1" x="34" y="7" fill="white" />
<rect width="1" height="1" x="35" y="7" fill="white" />
<rect width="1" height="1" x="36" y="7" fill="#DEC010" />
<rect width="1" height="1" x="37" y="7" fill="white" />
<rect width="1" height="1" x="38" y="7" fill="white" />
<rect width="1" height="1" x="39" y="7" fill="white" />
<rect width="1" height="1" x="40" y="7" fill="white" />
<rect width="1" height="1" x="41" y="7" fill="white" />
<rect width="1" height="1" x="42" y="7" fill="white" />
<rect width="1" height="1" x="43" y="7" fill="white" />
<rect width="1" height="1" x="44" y="7" fill="white" />
<rect width="1" height="1" x="45" y="7" fill="#DEC010" /><rect width="1" height="1" x="0" y="8" fill="#DEC010" />
<rect width="1" height="1" x="1" y="8" fill="white" />
<rect width="1" height="1" x="2" y="8" fill="white" />
<rect width="1" height="1" x="3" y="8" fill="white" />
<rect width="1" height="1" x="4" y="8" fill="white" />
<rect width="1" height="1" x="5" y="8" fill="white" />
<rect width="1" height="1" x="6" y="8" fill="white" />
<rect width="1" height="1" x="7" y="8" fill="white" />
<rect width="1" height="1" x="8" y="8" fill="white" />
<rect width="1" height="1" x="9" y="8" fill="#DEC010" />
<rect width="1" height="1" x="10" y="8" fill="white" />
<rect width="1" height="1" x="11" y="8" fill="white" />
<rect width="1" height="1" x="12" y="8" fill="white" />
<rect width="1" height="1" x="13" y="8" fill="white" />
<rect width="1" height="1" x="14" y="8" fill="white" />
<rect width="1" height="1" x="15" y="8" fill="white" />
<rect width="1" height="1" x="16" y="8" fill="white" />
<rect width="1" height="1" x="17" y="8" fill="white" />
<rect width="1" height="1" x="18" y="8" fill="#DEC010" />
<rect width="1" height="1" x="19" y="8" fill="white" />
<rect width="1" height="1" x="20" y="8" fill="white" />
<rect width="1" height="1" x="21" y="8" fill="white" />
<rect width="1" height="1" x="22" y="8" fill="white" />
<rect width="1" height="1" x="23" y="8" fill="white" />
<rect width="1" height="1" x="24" y="8" fill="white" />
<rect width="1" height="1" x="25" y="8" fill="white" />
<rect width="1" height="1" x="26" y="8" fill="white" />
<rect width="1" height="1" x="27" y="8" fill="#DEC010" />
<rect width="1" height="1" x="28" y="8" fill="white" />
<rect width="1" height="1" x="29" y="8" fill="white" />
<rect width="1" height="1" x="30" y="8" fill="white" />
<rect width="1" height="1" x="31" y="8" fill="white" />
<rect width="1" height="1" x="32" y="8" fill="white" />
<rect width="1" height="1" x="33" y="8" fill="white" />
<rect width="1" height="1" x="34" y="8" fill="white" />
<rect width="1" height="1" x="35" y="8" fill="white" />
<rect width="1" height="1" x="36" y="8" fill="#DEC010" />
<rect width="1" height="1" x="37" y="8" fill="white" />
<rect width="1" height="1" x="38" y="8" fill="white" />
<rect width="1" height="1" x="39" y="8" fill="white" />
<rect width="1" height="1" x="40" y="8" fill="white" />
<rect width="1" height="1" x="41" y="8" fill="white" />
<rect width="1" height="1" x="42" y="8" fill="white" />
<rect width="1" height="1" x="43" y="8" fill="white" />
<rect width="1" height="1" x="44" y="8" fill="white" />
<rect width="1" height="1" x="45" y="8" fill="#DEC010" /><rect width="1" height="1" x="0" y="9" fill="#DEC010" />
<rect width="1" height="1" x="1" y="9" fill="#DEC010" />
<rect width="1" height="1" x="2" y="9" fill="#DEC010" />
<rect width="1" height="1" x="3" y="9" fill="#DEC010" />
<rect width="1" height="1" x="4" y="9" fill="#DEC010" />
<rect width="1" height="1" x="5" y="9" fill="#DEC010" />
<rect width="1" height="1" x="6" y="9" fill="#DEC010" />
<rect width="1" height="1" x="7" y="9" fill="#DEC010" />
<rect width="1" height="1" x="8" y="9" fill="#DEC010" />
<rect width="1" height="1" x="9" y="9" fill="#DEC010" />
<rect width="1" height="1" x="10" y="9" fill="#DEC010" />
<rect width="1" height="1" x="11" y="9" fill="#DEC010" />
<rect width="1" height="1" x="12" y="9" fill="#DEC010" />
<rect width="1" height="1" x="13" y="9" fill="#DEC010" />
<rect width="1" height="1" x="14" y="9" fill="#DEC010" />
<rect width="1" height="1" x="15" y="9" fill="#DEC010" />
<rect width="1" height="1" x="16" y="9" fill="#DEC010" />
<rect width="1" height="1" x="17" y="9" fill="#DEC010" />
<rect width="1" height="1" x="18" y="9" fill="#DEC010" />
<rect width="1" height="1" x="19" y="9" fill="#DEC010" />
<rect width="1" height="1" x="20" y="9" fill="#DEC010" />
<rect width="1" height="1" x="21" y="9" fill="#DEC010" />
<rect width="1" height="1" x="22" y="9" fill="#DEC010" />
<rect width="1" height="1" x="23" y="9" fill="#DEC010" />
<rect width="1" height="1" x="24" y="9" fill="#DEC010" />
<rect width="1" height="1" x="25" y="9" fill="#DEC010" />
<rect width="1" height="1" x="26" y="9" fill="#DEC010" />
<rect width="1" height="1" x="27" y="9" fill="#DEC010" />
<rect width="1" height="1" x="28" y="9" fill="#DEC010" />
<rect width="1" height="1" x="29" y="9" fill="#DEC010" />
<rect width="1" height="1" x="30" y="9" fill="#DEC010" />
<rect width="1" height="1" x="31" y="9" fill="#DEC010" />
<rect width="1" height="1" x="32" y="9" fill="#DEC010" />
<rect width="1" height="1" x="33" y="9" fill="#DEC010" />
<rect width="1" height="1" x="34" y="9" fill="#DEC010" />
<rect width="1" height="1" x="35" y="9" fill="#DEC010" />
<rect width="1" height="1" x="36" y="9" fill="#DEC010" />
<rect width="1" height="1" x="37" y="9" fill="#DEC010" />
<rect width="1" height="1" x="38" y="9" fill="#DEC010" />
<rect width="1" height="1" x="39" y="9" fill="#DEC010" />
<rect width="1" height="1" x="40" y="9" fill="#DEC010" />
<rect width="1" height="1" x="41" y="9" fill="#DEC010" />
<rect width="1" height="1" x="42" y="9" fill="#DEC010" />
<rect width="1" height="1" x="43" y="9" fill="#DEC010" />
<rect width="1" height="1" x="44" y="9" fill="#DEC010" />
<rect width="1" height="1" x="45" y="9" fill="#DEC010" />
</svg>
